<svg xmlns="http://www.w3.org/2000/svg" viewBox="0 0 378 100"><g data-name="Layer 2"><g data-name="Logo Yellow Alt"><g data-name="Layer 2"><path d="M112.35 2.3a4.27 4.27 0 00-.74-1.18 3.42 3.42 0 00-1.09-.8 3.51 3.51 0 00-1.34-.32H91.34a.54.54 0 00-.43.17.59.59 0 00-.15.46V22.4c0 .42.18.61.56.61h4.08c.38 0 .56-.19.56-.61V5.45h3.32v17a.58.58 0 00.55.61h3.75a.48.48 0 00.38-.17.71.71 0 00.15-.44v-17h3.31v17a.74.74 0 00.14.44.5.5 0 00.44.11h4.11a.58.58 0 00.56-.61V3.76a3.82 3.82 0 00-.32-1.46zM131 17.6a.48.48 0 00-.4-.17H122a.57.57 0 01-.42-.16.58.58 0 01-.18-.43V.65c0-.41-.2-.63-.6-.63h-4.3c-.4 0-.6.22-.6.63V22.4q0 .63.6.63h14.08a.47.47 0 00.4-.18.66.66 0 00.17-.45v-4.34a.71.71 0 00-.15-.46zM152.62.2a.56.56 0 00-.42-.2h-4.39a.55.55 0 00-.41.18.57.57 0 00-.18.45V8a.59.59 0 01-.54.63h-6.19a.52.52 0 01-.58-.49V.65c0-.41-.2-.63-.6-.63h-4.37c-.4 0-.6.22-.6.63v21.81c0 .41.2.63.6.63h4.37c.4 0 .6-.22.6-.63v-7.75a.75.75 0 01.16-.29.61.61 0 01.42-.16h6.15a.53.53 0 01.42.16.65.65 0 01.16.43v7.61a.68.68 0 00.18.46.55.55 0 00.42.17h4.38a.55.55 0 00.42-.17.63.63 0 00.18-.46V.65a.67.67 0 00-.18-.45z" fill-rule="evenodd" fill="#fff" data-name="Layer 1-2"/></g><path d="M99 73.26h-8.24V33.7h22.67v6.87H99v10.2h13.42v6.85H99zm35.22.54q-7.31 0-11.42-4t-4.12-11.42q0-7.6 3.81-11.76T133 42.44q6.42 0 10 3.65t3.57 10.1v4h-19.52a8 8 0 002.08 5.5 7.36 7.36 0 005.47 2 22.69 22.69 0 005.17-.57 25.75 25.75 0 005.08-1.81v6.39a19.74 19.74 0 01-4.62 1.61 29.46 29.46 0 01-6.01.49zm-1.17-25.49a5.23 5.23 0 00-4.11 1.69 7.66 7.66 0 00-1.7 4.72h11.58a6.87 6.87 0 00-1.6-4.72 5.42 5.42 0 00-4.17-1.69zm28.47 24.95h-8.25V31.15h8.25zm16.92 0h-8.26V31.15h8.26zm36.15-15.18q0 7.39-3.89 11.56t-10.85 4.16a15.2 15.2 0 01-7.69-1.9 12.81 12.81 0 01-5.16-5.48 18.46 18.46 0 01-1.78-8.34q0-7.41 3.87-11.53T200 42.44a15.29 15.29 0 017.68 1.89 12.71 12.71 0 015.12 5.44 18.3 18.3 0 011.79 8.31zm-20.91 0q0 4.5 1.47 6.79a5.25 5.25 0 004.8 2.3 5.18 5.18 0 004.75-2.28q1.45-2.3 1.45-6.81t-1.46-6.74a6.22 6.22 0 00-9.55 0c-.98 1.48-1.46 3.73-1.46 6.74zm52.61 15.18L244 62.68l-3.14-13.37h-.19l-5.52 24h-8.88L217.63 43h8.22l3.49 13.39q.84 3.6 1.71 9.93h.16a55.25 55.25 0 01.95-6.52l.43-2.3 3.74-14.5h9.09L249 57.51c.08.4.19 1 .34 1.76s.31 1.6.45 2.48.27 1.73.39 2.57a17.66 17.66 0 01.2 2h.17c.16-1.29.45-3.08.86-5.34s.72-3.79.9-4.59L255.89 43H264l-8.71 30.25zM290 64.28a8.33 8.33 0 01-3.23 7.09q-3.24 2.43-9.67 2.43a30.18 30.18 0 01-5.63-.44 21.28 21.28 0 01-4.4-1.36v-6.77a29 29 0 005.18 1.77 20.88 20.88 0 005.08.73q4.49 0 4.49-2.6a2.14 2.14 0 00-.6-1.58 8.27 8.27 0 00-2.05-1.38q-1.47-.78-3.9-1.8a24.64 24.64 0 01-5.13-2.71 7.68 7.68 0 01-2.38-2.85 9.41 9.41 0 01-.74-4 7.19 7.19 0 013.12-6.24q3.14-2.2 8.86-2.2a25.13 25.13 0 0110.64 2.38l-2.49 6a44.31 44.31 0 00-4.25-1.59 13.2 13.2 0 00-4-.63c-2.44 0-3.65.66-3.65 2a2.32 2.32 0 001.17 1.92 32.13 32.13 0 005.16 2.41 24.11 24.11 0 015.19 2.68 7.94 7.94 0 012.44 2.87 8.85 8.85 0 01.79 3.87zm34.33 8.98h-8.25V55.59q0-6.56-4.87-6.55a5.55 5.55 0 00-5 2.36q-1.54 2.35-1.54 7.63v14.23h-8.25V31.15h8.25v8.58c0 .67-.06 2.24-.19 4.71l-.19 2.44h.43q2.76-4.44 8.77-4.44c3.56 0 6.25 1 8.09 2.87s2.76 4.65 2.76 8.22zm8.15-38.07q0-4 4.49-4t4.5 4a3.94 3.94 0 01-1.13 3 4.73 4.73 0 01-3.34 1.05q-4.51 0-4.52-4.05zm8.61 38.07h-8.26V43h8.26zm25.27.54a10 10 0 01-8.36-3.87h-.43c.29 2.53.43 4 .43 4.39v12.26h-8.25V43h6.71l1.16 3.92h.38a9.56 9.56 0 018.58-4.49 9.82 9.82 0 018.42 4.15q3 4.14 3 11.5a22.67 22.67 0 01-1.42 8.42 11.87 11.87 0 01-4.05 5.44 10.38 10.38 0 01-6.17 1.86zM363.93 49a5.23 5.23 0 00-4.47 1.88c-.94 1.26-1.42 3.33-1.46 6.21V58q0 4.86 1.45 7a5.15 5.15 0 004.55 2.12q5.54 0 5.54-9.15c0-3-.45-5.21-1.36-6.7a4.68 4.68 0 00-4.25-2.27zM97 88.63a2.76 2.76 0 01-1 2.31 4.69 4.69 0 01-2.93.8h-1.16v3.89h-1.15v-9.89h2.56q3.68 0 3.68 2.89zm-5.12 2.13h1a3.81 3.81 0 002.21-.5 1.8 1.8 0 00.69-1.58 1.71 1.71 0 00-.65-1.46 3.33 3.33 0 00-2-.48h-1.22zm13.45 1.16a4.13 4.13 0 01-.91 2.83 3.22 3.22 0 01-2.53 1 3.33 3.33 0 01-1.76-.47A2.94 2.94 0 0198.94 94a4.64 4.64 0 01-.42-2 4.08 4.08 0 01.9-2.82 3.21 3.21 0 012.52-1 3.13 3.13 0 012.47 1 4.07 4.07 0 01.92 2.74zm-5.65 0a3.53 3.53 0 00.57 2.17 2.25 2.25 0 003.34 0 3.53 3.53 0 00.58-2.17 3.46 3.46 0 00-.58-2.15 2.3 2.3 0 00-3.35 0 3.51 3.51 0 00-.56 2.15zm13.67 3.71L112 91.28c-.08-.26-.24-.87-.48-1.81h-.05c-.18.79-.34 1.4-.47 1.83l-1.41 4.33h-1.29l-2-7.41h1.18c.48 1.86.84 3.28 1.09 4.25a16.63 16.63 0 01.43 2c0-.25.13-.59.24-1s.2-.74.28-1l1.36-4.25h1.22l1.33 4.25a14.73 14.73 0 01.51 2h.06a5.24 5.24 0 01.14-.75q.12-.51 1.41-5.46h1.17l-2 7.41zm7.86.14a3.41 3.41 0 01-2.6-1 3.91 3.91 0 01-1-2.78 4.28 4.28 0 01.89-2.85 2.92 2.92 0 012.37-1.06 2.79 2.79 0 012.2.92 3.52 3.52 0 01.81 2.42v.71h-5.1a2.91 2.91 0 00.66 2 2.27 2.27 0 001.76.68 6 6 0 002.37-.5v1a6.73 6.73 0 01-1.13.37 6.63 6.63 0 01-1.23.09zM120.9 89a1.83 1.83 0 00-1.42.59 2.72 2.72 0 00-.63 1.61h3.88a2.51 2.51 0 00-.47-1.63 1.68 1.68 0 00-1.36-.57zm8.33-.92a4 4 0 01.89.09l-.16 1a3.57 3.57 0 00-.81-.1 2 2 0 00-1.54.73 2.68 2.68 0 00-.64 1.82v4h-1.12v-7.4h.93l.12 1.37h.1a3.26 3.26 0 011-1.11 2.2 2.2 0 011.23-.4zm5.41 7.69a3.41 3.41 0 01-2.6-1 3.91 3.91 0 01-.95-2.78 4.28 4.28 0 01.89-2.85 2.92 2.92 0 012.37-1.06 2.79 2.79 0 012.2.92 3.52 3.52 0 01.81 2.42v.71h-5.1a2.91 2.91 0 00.66 2 2.27 2.27 0 001.76.68 6 6 0 002.37-.5v1a6.73 6.73 0 01-1.13.37 6.63 6.63 0 01-1.28.09zm-.31-6.77a1.83 1.83 0 00-1.42.59 2.72 2.72 0 00-.63 1.61h3.88a2.51 2.51 0 00-.47-1.63 1.68 1.68 0 00-1.36-.57zm10 5.64h-.06a2.66 2.66 0 01-2.33 1.13 2.77 2.77 0 01-2.27-1 5.41 5.41 0 010-5.68 3 3 0 014.57.08h.09l-.05-.53v-3.53h1.12v10.52h-.91zm-2.25.19a2 2 0 001.67-.63 3.18 3.18 0 00.52-2V92a3.72 3.72 0 00-.53-2.25 2 2 0 00-1.67-.68 1.74 1.74 0 00-1.52.77A3.83 3.83 0 00140 92a3.67 3.67 0 00.52 2.15 1.78 1.78 0 001.56.68zm12.74-6.73a2.75 2.75 0 012.27 1 5.32 5.32 0 010 5.66 2.74 2.74 0 01-2.26 1 3.18 3.18 0 01-1.32-.27 2.5 2.5 0 01-1-.82h-.08l-.24.95h-.8V85.11h1.12v2.55c0 .58 0 1.09-.05 1.55h.05a2.68 2.68 0 012.31-1.11zm-.16.94a2 2 0 00-1.66.66 3.7 3.7 0 00-.51 2.22 3.79 3.79 0 00.52 2.24 2 2 0 001.67.67 1.74 1.74 0 001.55-.76 3.84 3.84 0 00.5-2.16 3.71 3.71 0 00-.5-2.16 1.78 1.78 0 00-1.57-.75zm4.02-.82h1.21l1.62 4.23a14.32 14.32 0 01.66 2.09h.06c.06-.23.18-.63.37-1.18s.8-2.27 1.83-5.14h1.21l-3.19 8.44a4.16 4.16 0 01-1.1 1.78 2.37 2.37 0 01-1.56.52 4.88 4.88 0 01-1-.11V98a4.17 4.17 0 00.83.08 1.71 1.71 0 001.65-1.3l.41-1.06zm25.7 1.21h-5.74a.27.27 0 00-.27.27v2.81a.27.27 0 00.27.27h2.23v3.48a6.8 6.8 0 01-1.89.17c-1.64 0-3.93-.59-3.93-5.63s2.39-5.71 4.63-5.71a9.1 9.1 0 013.3.51.27.27 0 00.32-.26l.64-2.71a.24.24 0 00-.1-.21c-.21-.16-1.53-.89-4.86-.89-3.83 0-7.76 1.63-7.76 9.46s4.5 9 8.29 9a9.37 9.37 0 005.05-1.34.24.24 0 00.08-.21V89.7a.27.27 0 00-.26-.27zM214 82.46a.27.27 0 00-.27-.27h-3.23a.27.27 0 00-.27.27v6.25h-5v-6.25a.27.27 0 00-.27-.27h-3.23a.27.27 0 00-.27.27v16.92a.27.27 0 00.27.27h3.23a.27.27 0 00.27-.27v-7.24h5v7.24a.27.27 0 00.26.27h3.24a.27.27 0 00.27-.27zm-23.52 2.22a2.09 2.09 0 10-2.09 2.11 2.1 2.1 0 002.09-2.11zm-.24 11.13V88a.27.27 0 00-.26-.27h-3.23a.32.32 0 00-.28.3v11.19c0 .33.21.43.47.43h2.91c.32 0 .39-.16.39-.44zm36.01-8.05H223a.27.27 0 00-.27.27v8.29a3.59 3.59 0 01-2 .6c-1.16 0-1.46-.53-1.46-1.66V88a.27.27 0 00-.27-.27h-3.26a.27.27 0 00-.26.27v7.78c0 3.36 1.87 4.19 4.45 4.19a7.48 7.48 0 003.82-1.17 6.31 6.31 0 00.12.69.29.29 0 00.24.14h2.07a.27.27 0 00.26-.27V88a.27.27 0 00-.19-.24zm8.75-.38a6 6 0 00-3.06.81v-5.73a.27.27 0 00-.27-.27h-3.24a.27.27 0 00-.26.27v16.92a.27.27 0 00.26.27h2.25a.28.28 0 00.24-.14 6.28 6.28 0 00.13-.78 5.84 5.84 0 003.85 1.27c2.94 0 4.63-1.49 4.63-6.71s-2.69-5.91-4.53-5.91zm-1.26 9.53a3.9 3.9 0 01-1.87-.54V91a4.28 4.28 0 011.66-.53c1.15-.11 2.27.24 2.27 3s-.5 3.53-2.05 3.44zm-34.21-9.18h-2.42v-3.2q0-.18-.21-.18h-3.3c-.13 0-.2.05-.2.18v3.31l-1.77.43a.26.26 0 00-.19.26v2.08a.27.27 0 00.27.27h1.69v5c0 3.72 2.61 4.08 4.37 4.08a7.4 7.4 0 001.92-.31.26.26 0 00.15-.25v-2.28a.28.28 0 00-.27-.27c-.14 0-.5.05-.88.05-1.19 0-1.59-.55-1.59-1.27v-4.75h2.42a.27.27 0 00.27-.27V88a.27.27 0 00-.26-.27z" fill="#fff"/><path fill="#f8b92a" d="M39.26 39.26H73.9V73.9H39.26z"/><path fill="#ffcd69" d="M0 39.26h34.64V73.9H0z"/><path fill="#e2a120" d="M39.26 0H73.9v34.64H39.26z"/></g></g></svg>